<svg width="36" height="40" viewBox="0 0 36 40" fill="none" xmlns="http://www.w3.org/2000/svg">
<g id="Layer 1">
<path id="Vector" d="M16.8741 0.49612L8.8367 15.5967C8.81082 15.6454 8.79889 15.7001 8.80219 15.755L9.3939 25.0833C9.39432 25.0935 9.39134 25.1035 9.38542 25.1118C9.3795 25.1201 9.37096 25.1263 9.36114 25.1293C9.35132 25.1324 9.34075 25.1322 9.33107 25.1287C9.32139 25.1252 9.31315 25.1187 9.30761 25.1101L0.449188 10.6038C0.431799 10.5762 0.420163 10.5455 0.414966 10.5134C0.409769 10.4814 0.411115 10.4486 0.418926 10.4171C0.426736 10.3855 0.440853 10.3558 0.460445 10.3298C0.480038 10.3037 0.504712 10.2817 0.533014 10.2652L16.6818 0.320758C16.707 0.305136 16.7368 0.298146 16.7664 0.300868C16.796 0.30359 16.824 0.315871 16.8458 0.335818C16.8677 0.355765 16.8823 0.382268 16.8874 0.411238C16.8926 0.440209 16.8879 0.470037 16.8741 0.49612Z" fill="white"/>
<path id="Vector_2" d="M17.5056 10.8794C17.7441 10.7475 18.0095 10.6701 18.2823 10.6528C18.6398 10.6309 19.0909 10.609 19.0909 10.609C24.335 10.4142 29.6678 10.3046 34.9143 10.2461H35.1165C35.1308 10.2452 35.1444 10.2398 35.1555 10.2309C35.1666 10.2219 35.1746 10.2098 35.1784 10.1961C35.1822 10.1825 35.1816 10.168 35.1767 10.1547C35.1718 10.1414 35.1628 10.1299 35.151 10.1219L18.8222 0.0702513C18.7663 0.0368725 18.7043 0.0147954 18.6397 0.00530192C18.5751 -0.00419158 18.5092 -0.0009123 18.4459 0.0149493C18.3826 0.030811 18.3231 0.0589389 18.2709 0.0976999C18.2187 0.136461 18.1748 0.185083 18.1417 0.240742L17.9568 0.564674L9.65312 15.2317C9.64956 15.2364 9.64783 15.2422 9.64826 15.2481C9.64868 15.2539 9.65122 15.2594 9.65541 15.2636C9.65961 15.2677 9.66518 15.2702 9.6711 15.2706C9.67702 15.2711 9.68289 15.2693 9.68764 15.2658L17.5056 10.8794Z" fill="white"/>
<path id="Vector_3" d="M35.4887 11.1181C32.72 11.14 29.7737 11.1619 27.01 11.1522C24.791 11.1522 20.1905 11.0962 19.0169 11.0815C19.0006 11.0815 18.9848 11.0868 18.9718 11.0966C18.9589 11.1064 18.9496 11.1202 18.9454 11.1357C18.9412 11.1513 18.9423 11.1677 18.9485 11.1826C18.9548 11.1975 18.9658 11.2099 18.9799 11.2179L26.7708 15.6994C26.7792 15.7025 26.7868 15.7075 26.793 15.714C26.8007 15.7184 26.8074 15.7241 26.8127 15.7311C26.8181 15.7348 26.8223 15.7398 26.825 15.7457C26.8264 15.7537 26.8264 15.762 26.825 15.77L34.6603 28.9368C34.6725 28.9557 34.6904 28.9704 34.7115 28.9788C34.7326 28.9872 34.7558 28.9888 34.7779 28.9834C34.8 28.978 34.8198 28.9659 34.8345 28.9488C34.8492 28.9317 34.8582 28.9104 34.86 28.8881L35.9991 11.6344C36.0031 11.568 35.9933 11.5015 35.9704 11.439C35.9474 11.3765 35.9117 11.3193 35.8655 11.2709C35.8193 11.2225 35.7636 11.184 35.7017 11.1577C35.6399 11.1315 35.5733 11.118 35.506 11.1181H35.4887Z" fill="white"/>
<path id="Vector_4" d="M34.0606 30.2961C31.9083 31.6138 19.6894 39.0959 18.3408 39.8606C18.2622 39.9338 18.1625 39.9809 18.0555 39.9953C17.9485 40.0097 17.8397 39.9908 17.7442 39.941L1.48194 30.715C1.38511 30.6604 1.30355 30.5828 1.24459 30.4893C1.18563 30.3957 1.15112 30.2892 1.14417 30.1792C0.988847 27.8411 0.224552 16.0723 0.00266017 12.6625C-0.00583957 12.6058 0.00617671 12.548 0.0365946 12.4992C0.0670124 12.4504 0.113883 12.4137 0.168958 12.3957C0.224033 12.3776 0.283784 12.3794 0.337696 12.4006C0.391608 12.4217 0.436228 12.461 0.463702 12.5115L9.37143 25.7879C9.37857 25.7976 9.38356 25.8087 9.38606 25.8204C9.38857 25.8321 9.38855 25.8442 9.38599 25.856C9.38343 25.8677 9.37839 25.8788 9.37121 25.8884C9.36403 25.8981 9.35486 25.9062 9.34431 25.9121L2.82562 29.809C2.81276 29.8166 2.80276 29.8282 2.79714 29.842C2.79153 29.8557 2.7906 29.8709 2.7945 29.8852C2.79841 29.8995 2.80692 29.9122 2.81877 29.9213C2.83061 29.9304 2.84513 29.9354 2.86014 29.9357L17.0366 29.9722C17.0456 29.9734 17.0548 29.9712 17.0623 29.9661C17.0699 29.961 17.0752 29.9533 17.0774 29.9446C17.0795 29.9358 17.0783 29.9265 17.0739 29.9186C17.0696 29.9107 17.0624 29.9046 17.0538 29.9016L17.7565 30.1451C17.7499 30.2108 17.7191 30.2719 17.6701 30.3168C17.621 30.3616 17.5571 30.3872 17.4902 30.3887L2.58154 30.6858C2.56592 30.6856 2.5507 30.6906 2.53834 30.7001C2.52599 30.7095 2.51724 30.7228 2.51352 30.7378C2.5098 30.7527 2.51133 30.7685 2.51786 30.7825C2.52439 30.7966 2.53554 30.808 2.54949 30.8149L17.5888 38.7086C17.6447 38.7391 17.7103 38.7469 17.7719 38.7306C17.8335 38.7142 17.8863 38.6749 17.9192 38.6209L25.5622 26.3261C25.5671 26.3179 25.5691 26.3083 25.568 26.2988C25.5668 26.2893 25.5626 26.2804 25.5559 26.2736C25.5492 26.2667 25.5404 26.2621 25.5309 26.2606C25.5213 26.2591 25.5115 26.2607 25.503 26.2652L26.1489 25.9023V25.9925C26.1483 26.1187 26.1152 26.2428 26.0528 26.3529L19.364 38.0754C19.3584 38.085 19.3562 38.0961 19.3576 38.1071C19.359 38.1181 19.3639 38.1283 19.3717 38.1362C19.3795 38.1442 19.3896 38.1494 19.4007 38.1512C19.4118 38.153 19.4231 38.1511 19.433 38.146L33.6045 30.0647C33.6193 30.0562 33.6316 30.0439 33.6402 30.0291C33.6487 30.0144 33.6532 29.9977 33.6532 29.9807C33.6532 29.9637 33.6487 29.947 33.6402 29.9323C33.6316 29.9176 33.6193 29.9053 33.6045 29.8967L26.7826 25.9998C26.7223 25.9654 26.6726 25.9156 26.6387 25.8555C26.6048 25.7955 26.5881 25.7275 26.5903 25.6588L26.9009 17.1196C26.9012 17.1025 26.9072 17.0859 26.918 17.0724C26.9288 17.0589 26.9438 17.0494 26.9607 17.0452C26.9775 17.0411 26.9953 17.0425 27.0113 17.0494C27.0272 17.0562 27.0404 17.0681 27.0488 17.0831C27.9586 18.7003 33.1484 27.9117 34.1987 29.77C34.2477 29.8586 34.2607 29.9624 34.2351 30.0601C34.2094 30.1578 34.147 30.2422 34.0606 30.2961Z" fill="white"/>
<path id="Vector_5" d="M26.2076 16.6513L26.146 25.9065L25.5 26.2694L18.6115 30.0495C18.5693 30.0727 18.5216 30.0845 18.4733 30.0836C18.425 30.0828 18.3777 30.0693 18.3364 30.0445C18.2951 30.0198 18.2611 29.9847 18.238 29.9428C18.2149 29.9008 18.2034 29.8536 18.2047 29.8059C18.2047 29.8059 18.4512 22.0364 18.4759 20.843C18.4777 20.7962 18.4915 20.7505 18.5161 20.7105C18.5407 20.6704 18.5752 20.6372 18.6164 20.614L25.8871 16.4735C25.9192 16.4555 25.9556 16.4459 25.9926 16.4458C26.0296 16.4457 26.066 16.455 26.0982 16.4729C26.1305 16.4908 26.1575 16.5167 26.1767 16.5479C26.1958 16.5792 26.2065 16.6148 26.2076 16.6513Z" fill="white"/>
<path id="Vector_6" d="M17.8113 30.0293V30.0536L17.1087 29.81L9.86514 25.8157C9.84951 25.8062 9.83655 25.793 9.8275 25.7772C9.81844 25.7615 9.81358 25.7437 9.81337 25.7256L9.74927 16.3486C9.74941 16.333 9.75366 16.3176 9.76161 16.3041C9.76956 16.2906 9.78093 16.2794 9.79461 16.2715C9.80829 16.2636 9.8238 16.2594 9.83963 16.2593C9.85545 16.2591 9.87104 16.2631 9.88487 16.2707L17.3774 20.5427C17.4185 20.5658 17.4528 20.599 17.477 20.6392C17.5012 20.6793 17.5145 20.7249 17.5155 20.7716C17.5648 21.9772 17.8113 29.8831 17.8113 29.8831V30.0293Z" fill="white"/>
</g>
</svg>
